<svg xmlns="http://www.w3.org/2000/svg" width="64" height="64" fill="none"><circle cx="32" cy="32" r="32" fill="#61AA45"/><path fill="#fff" fill-rule="evenodd" d="M18.133 12.82c7.92-.038 15.836.001 23.75.117 1.192.391 1.883 1.212 2.07 2.461l.078 2.11c2.872.606 4.252 2.377 4.14 5.312-.442 2.318-1.822 3.698-4.14 4.14l-.078 21.563c-.214 1.438-1.034 2.284-2.46 2.54-7.787.052-15.574.052-23.36 0-1.316-.275-2.11-1.07-2.383-2.383a3576.688 3576.688 0 0 1 0-33.438c.287-1.315 1.08-2.122 2.383-2.422Zm0 1.016c7.812-.013 15.625 0 23.437.039.698.255 1.154.737 1.367 1.445.053.73.053 1.459 0 2.188-2.581.524-3.974 2.1-4.18 4.726.206 2.627 1.599 4.203 4.18 4.727.053 7.214.053 14.427 0 21.64-.213.709-.669 1.19-1.367 1.446-7.812.052-15.625.052-23.437 0-.716-.195-1.172-.651-1.367-1.367a3576.688 3576.688 0 0 1 0-33.438c.21-.717.665-1.186 1.367-1.406Zm24.61 4.687c2.283-.2 3.754.789 4.413 2.97.24 2.285-.737 3.756-2.93 4.413-2.285.24-3.757-.737-4.413-2.93-.224-2.287.753-3.771 2.93-4.453ZM29.538 46.961c.638-.104.937.157.898.781-.355.57-.746.596-1.171.078-.088-.345.004-.632.273-.86Z" clip-rule="evenodd" opacity=".892"/><path fill="#fff" fill-rule="evenodd" d="M24.54 15.008c2.525-.013 5.051 0 7.577.039.374.255.4.541.078.86-2.552.051-5.104.051-7.656 0-.31-.296-.31-.596 0-.9Z" clip-rule="evenodd" opacity=".947"/><path fill="#fff" fill-rule="evenodd" d="M33.992 15.008c.427-.031.843.008 1.25.117.217.282.19.542-.078.781a5.018 5.018 0 0 1-1.25 0c-.225-.326-.2-.625.078-.898Z" clip-rule="evenodd" opacity=".883"/><path fill="#fff" fill-rule="evenodd" d="M29.227 19.148c1.915-.15 3.01.723 3.28 2.618-.089 1.235-.714 2.069-1.874 2.5-1.6.326-2.707-.26-3.32-1.758-.29-1.662.348-2.782 1.914-3.36Zm.312.938a1.99 1.99 0 0 0-1.133.86c-.406.904-.21 1.647.586 2.226 1.167.451 1.988.1 2.461-1.055.076-1.343-.562-2.02-1.914-2.031Z" clip-rule="evenodd" opacity=".906"/><path fill="#fff" fill-rule="evenodd" d="M44.852 20.633c.644-.02.839.266.586.86-.743.741-1.485 1.484-2.227 2.226a.803.803 0 0 1-.625.078l-1.133-1.133c-.078-.573.17-.794.742-.664.2.255.434.437.703.547a67.04 67.04 0 0 1 1.954-1.914Z" clip-rule="evenodd" opacity=".867"/><path fill="#fff" fill-rule="evenodd" d="M29.07 24.852c1.93-.175 3.401.554 4.414 2.187.723 1.189.97 2.452.743 3.789-2.858.13-5.723.155-8.594.078a.544.544 0 0 1-.274-.195c-.16-2.4.764-4.236 2.774-5.508.318-.127.63-.244.937-.351Zm.39.937a4.744 4.744 0 0 0-1.093.43c-1.256.909-1.933 2.146-2.031 3.71h7.031a5.103 5.103 0 0 0-.976-2.734c-.73-.983-1.706-1.452-2.93-1.406Z" clip-rule="evenodd" opacity=".901"/><path fill="#fff" fill-rule="evenodd" d="M21.258 33.68c5.729-.013 11.458 0 17.187.039.313.286.313.573 0 .86a945.03 945.03 0 0 1-17.187 0c-.308-.3-.308-.6 0-.9ZM21.258 37.82c5.729-.013 11.458 0 17.187.04.313.286.313.572 0 .859a945.03 945.03 0 0 1-17.187 0c-.308-.3-.308-.599 0-.899Z" clip-rule="evenodd" opacity=".955"/><path fill="#fff" fill-rule="evenodd" d="M25.477 41.96c2.916-.012 5.833 0 8.75.04.312.286.312.573 0 .86-2.917.051-5.834.051-8.75 0-.309-.3-.309-.6 0-.9Z" clip-rule="evenodd" opacity=".95"/><path fill="#fff" fill-rule="evenodd" d="M29.46 45.945c1.447-.025 2.085.678 1.915 2.11-.45.973-1.193 1.299-2.227.976-.92-.593-1.14-1.387-.664-2.383.258-.342.584-.576.977-.703Zm.08 1.016c-.27.227-.362.514-.274.86.425.517.816.491 1.172-.079.038-.624-.261-.885-.899-.781Z" clip-rule="evenodd" opacity=".908"/></svg>