<svg xmlns="http://www.w3.org/2000/svg" width="64" height="64" fill="none"><circle cx="32" cy="32" r="32" fill="#61AA45"/><g fill="#fff" fill-rule="evenodd" clip-path="url(#a)" clip-rule="evenodd"><path d="M32.43 11.96h1.25c1.324.687 1.65 1.702.976 3.048-.656.785-1.463.994-2.422.625l-3.32 3.32c5.67-2.134 11.165-1.743 16.484 1.172.58.349 1.14.726 1.68 1.133l1.055-1.055c.25-.116.51-.142.781-.078a165.318 165.318 0 0 0 3.047 3.008v.625a160.599 160.599 0 0 1-2.969 3.008.946.946 0 0 1-.625.078 45.32 45.32 0 0 1-3.164-3.164.946.946 0 0 1 .078-.625l.82-.82c-4.67-3.254-9.748-4.087-15.234-2.5A15.408 15.408 0 0 0 26.336 22c.672 1.508.412 2.836-.781 3.984-1.13.824-2.327.941-3.594.352-3.181 4.85-3.845 10.033-1.992 15.547a16.457 16.457 0 0 0 2.265 4.219 4.328 4.328 0 0 1 1.055-.899.508.508 0 0 1 .39 0 45.32 45.32 0 0 1 3.165 3.164.946.946 0 0 1-.078.625 160.599 160.599 0 0 1-3.008 2.969h-.625a55.364 55.364 0 0 1-3.008-3.047 1.17 1.17 0 0 1 .078-.781l1.055-1.055c-3.233-4.507-4.313-9.494-3.242-14.96.268-1.09.58-2.159.937-3.204l-3.32 3.32c.382 1.013.148 1.847-.703 2.5-1.335.58-2.324.228-2.97-1.054v-1.25c.595-1.167 1.533-1.57 2.813-1.211l5.899-5.899a12.285 12.285 0 0 1-.39-1.172c-.239-2.013.608-3.302 2.538-3.867a5.662 5.662 0 0 1 1.328 0c.4.133.79.264 1.172.39l5.899-5.898c-.36-1.28.044-2.218 1.21-2.812Zm.312 1.33c.742-.08 1.016.233.82.937-.411.393-.776.34-1.093-.157a.756.756 0 0 1 .273-.78Zm-9.687 8.28c1.7-.006 2.442.828 2.226 2.5-.405.939-1.121 1.369-2.148 1.29-1.363-.473-1.818-1.397-1.367-2.774.31-.506.739-.845 1.289-1.016Zm25.468.157a13.948 13.948 0 0 1 1.797 1.718 26.768 26.768 0 0 1-1.718 1.72 26.744 26.744 0 0 1-1.72-1.72c.55-.574 1.096-1.147 1.641-1.718ZM13.68 32.43c.811.078.994.455.547 1.133-.639.142-.938-.106-.899-.743a.86.86 0 0 1 .352-.39Zm9.765 14.375c.61.57 1.209 1.156 1.797 1.758a57.02 57.02 0 0 1-1.797 1.757 26.741 26.741 0 0 1-1.718-1.718l1.718-1.797Z" opacity=".935"/><path d="M51.96 41.258v.703a904.821 904.821 0 0 0-10 10h-.702a86.508 86.508 0 0 1-2.266-4.375c-2.36-.93-4.717-1.868-7.07-2.813a1136.202 1136.202 0 0 1-6.602-16.64.814.814 0 0 1 .117-.39l2.305-2.306a.803.803 0 0 1 .625-.078l16.406 6.563c.97 2.343 1.907 4.7 2.813 7.07a86.547 86.547 0 0 1 4.375 2.266ZM28.21 26.805a795.67 795.67 0 0 1 15.587 6.172 666.23 666.23 0 0 0 2.46 6.289l-6.991 6.992-6.328-2.5-6.133-15.39c.026-.198.13-.289.312-.274l7.852 7.851a6.016 6.016 0 0 0-.547 1.797c-.049 2.13.954 3.471 3.008 4.024 2.264.216 3.71-.76 4.336-2.93.245-2.208-.68-3.653-2.774-4.336a4.148 4.148 0 0 0-1.25-.078 6.019 6.019 0 0 0-1.797.547l-7.851-7.852a.31.31 0 0 1 .117-.312Zm9.61 8.906c1.342-.025 2.215.6 2.617 1.875.18 1.426-.406 2.376-1.757 2.851-1.572.199-2.548-.465-2.93-1.992-.06-1.488.63-2.4 2.07-2.734Zm9.297 4.61c1.036.465 2.052.973 3.047 1.523l-8.32 8.32a27.332 27.332 0 0 1-1.485-3.047c2.269-2.255 4.521-4.52 6.758-6.797Z" opacity=".93"/></g><defs><clipPath id="a"><path fill="#fff" d="M12 12h40v40H12z"/></clipPath></defs></svg>