<svg xmlns="http://www.w3.org/2000/svg" width="64" height="64" fill="none"><circle cx="32" cy="32" r="32" fill="#61AA45"/><g fill="#fff" fill-rule="evenodd" clip-path="url(#a)" clip-rule="evenodd"><path d="M51.96 35.633v3.594c-.063.469-.324.794-.78.976-.494.04-.99.052-1.485.04-.437 1.774-1.57 2.712-3.398 2.812-1.829-.1-2.961-1.038-3.399-2.813h-11.25c-.561 2.066-1.915 2.99-4.062 2.774-1.505-.346-2.416-1.27-2.734-2.774a74.589 74.589 0 0 1-5.86-.117 1.126 1.126 0 0 1-.195-.43c-.04-1.406-.052-2.812-.04-4.218-1.666.013-3.333 0-5-.04a.9.9 0 0 1-.35-.273c-.117-.393-.026-.718.273-.977l4.258-.038c1.478-.013 2.949.026 4.414.117.37.486.291.877-.235 1.172-.676.039-1.354.052-2.031.039v3.437h4.766c.446-1.762 1.58-2.673 3.398-2.734 1.765.07 2.898.955 3.398 2.656 3.02.078 6.042.104 9.063.078v-16.25H20.086v1.875a97.64 97.64 0 0 1 3.906.04c.625.416.625.832 0 1.25-2.708.051-5.416.051-8.125 0-.357-.2-.474-.499-.351-.9a.587.587 0 0 1 .351-.35 53.473 53.473 0 0 1 2.89-.04c-.028-.838.01-1.67.118-2.5.18-.337.454-.559.82-.664 7.162-.052 14.323-.052 21.485 0 .396.11.67.357.82.742.04 1.589.052 3.177.04 4.766a165 165 0 0 1 5.077.039c.421.16.747.434.977.82a142.446 142.446 0 0 1 3.672 6.797c.07.375.135.74.195 1.094Zm-9.92-7.422c1.607-.026 3.208 0 4.804.078a372.513 372.513 0 0 1 3.515 6.328c.136.325.214.664.235 1.016.039 1.093.052 2.187.039 3.281-.317.025-.63 0-.938-.078-.733-2.138-2.217-2.984-4.453-2.54-1.227.434-2.008 1.28-2.344 2.54a2.433 2.433 0 0 1-.859.078V28.211Zm-14.376 9.297c1.573-.145 2.484.558 2.734 2.11-.299 1.633-1.262 2.297-2.89 1.991-1.352-.721-1.703-1.776-1.055-3.164.327-.418.73-.73 1.211-.937Zm18.125 0c1.742-.12 2.614.687 2.617 2.422-.335 1.324-1.181 1.91-2.539 1.758-1.06-.306-1.633-1.009-1.719-2.11.134-1.03.681-1.72 1.641-2.07Z" opacity=".94"/><path d="M19.148 27.117c.37-.074.669.03.899.313.039 1.302.052 2.604.039 3.906 2.839-.013 5.677 0 8.516.04.416.39.416.78 0 1.171-3.907.052-7.813.052-11.72 0-.484-.353-.51-.744-.077-1.172.65-.039 1.301-.052 1.953-.039-.013-1.224 0-2.448.039-3.672a.8.8 0 0 1 .351-.547Z" opacity=".973"/><path d="M11.96 29.07v-.859a.762.762 0 0 1 .392-.195 70.31 70.31 0 0 1 4.687 0c.459.235.576.587.352 1.054a.544.544 0 0 1-.274.196c-1.64.052-3.281.052-4.922 0a.822.822 0 0 0-.234-.196Z" opacity=".929"/></g><defs><clipPath id="a"><path fill="#fff" d="M12 12h40v40H12z"/></clipPath></defs></svg>