<svg xmlns="http://www.w3.org/2000/svg" width="32" height="33" fill="none"><g clip-path="url(#a)"><path fill="#039BE5" fill-rule="evenodd" d="M14.531.469h2.875c5.603.68 9.822 3.451 12.657 8.312a16.936 16.936 0 0 1 1.906 6.25v2.875c-.68 5.603-3.452 9.822-8.313 12.657a16.935 16.935 0 0 1-6.25 1.906h-2.875c-5.603-.68-9.821-3.452-12.656-8.313a16.933 16.933 0 0 1-1.906-6.25v-2.875C.649 9.43 3.42 5.21 8.28 2.375a16.934 16.934 0 0 1 6.25-1.906Z" clip-rule="evenodd" opacity=".997"/><path fill="#FEFEFE" fill-rule="evenodd" d="M22.844 10.094c.85.028 1.172.466.968 1.312A595.976 595.976 0 0 1 21 24.344c-.361.354-.767.406-1.219.156a147.402 147.402 0 0 0-4.031-2.969 48.111 48.111 0 0 0-2.094 2.032c-.186.13-.395.203-.625.218.092-1.354.185-2.708.281-4.062a576.652 576.652 0 0 0 7.5-6.813c.022-.151-.05-.214-.218-.187a.97.97 0 0 0-.438.156l-9 5.688a.406.406 0 0 1-.312 0L7.03 17.375c-.627-.215-.71-.549-.25-1a9.58 9.58 0 0 1 1.125-.5c4.998-1.898 9.977-3.825 14.938-5.781Z" clip-rule="evenodd"/></g><defs><clipPath id="a"><path fill="#fff" d="M0 .5h32v32H0z"/></clipPath></defs></svg>