<svg xmlns="http://www.w3.org/2000/svg" width="64" height="64" fill="none"><circle cx="32" cy="32" r="32" fill="#61AA45"/><g fill="#fff" fill-rule="evenodd" clip-path="url(#a)" clip-rule="evenodd"><path d="M34.54 11.96h2.812c5.124.852 8.522 3.743 10.195 8.673 1.297 5.825-.513 10.396-5.43 13.71-3.984 2.176-7.995 2.228-12.031.157-4.263-2.601-6.308-6.416-6.133-11.445.546-4.962 3.111-8.413 7.695-10.352a16.848 16.848 0 0 1 2.891-.742Zm.233 1.407c1.928-.17 3.777.13 5.547.899a5.512 5.512 0 0 1 1.485.898 3892.952 3892.952 0 0 1-14.649 14.688c-2.352-3.777-2.43-7.606-.234-11.485 1.863-2.84 4.48-4.506 7.851-5Zm8.204 2.656c.354.262.627.574.82.938L28.875 31.883l-.781-.781c-.052-.053-.052-.105 0-.157a4025.44 4025.44 0 0 0 14.883-14.922Zm1.718 2.032a9.627 9.627 0 0 1 1.836 4.922c.232 4.446-1.526 7.844-5.273 10.195-3.76 1.992-7.458 1.888-11.094-.313-.074-.056-.087-.12-.039-.195 4.873-4.86 9.73-9.73 14.57-14.61Z" opacity=".934"/><path d="M11.96 33.367v-1.875c.693-2.777 2.476-4.261 5.352-4.453 1.234.02 2.34.398 3.32 1.133l8.477 8.476c1.523 2.259 1.496 4.498-.078 6.72-2.028 2.102-4.36 2.505-6.992 1.21-.36-.23-.7-.49-1.016-.781l-7.617-7.617a6.604 6.604 0 0 1-1.445-2.813Zm4.923-4.922a4.472 4.472 0 0 1 2.812.82 236.63 236.63 0 0 1 3.594 3.633c-.26.299-.533.585-.82.86l-1.446-1.446c-.497-.243-.875-.125-1.132.352a.946.946 0 0 0 .078.625 38.8 38.8 0 0 1 1.445 1.484 122.008 122.008 0 0 1-3.672 3.672 80.426 80.426 0 0 1-3.633-3.672c-.96-1.522-.986-3.058-.078-4.609.72-.965 1.67-1.538 2.852-1.719Zm7.422 5.47a235.551 235.551 0 0 1 3.633 3.593c1.093 1.64 1.093 3.281 0 4.922-1.503 1.597-3.235 1.897-5.196.898a68.843 68.843 0 0 1-3.984-3.828l3.71-3.71 1.915 1.913c.619.292 1.01.11 1.172-.547a2.007 2.007 0 0 0-.117-.43 67.62 67.62 0 0 1-1.915-1.953l.782-.859Z" opacity=".933"/><path d="M17.898 29.852c.272-.025.533.014.782.117l.586.586c.267.904-.059 1.256-.977 1.055a2.233 2.233 0 0 1-.781-1.055.995.995 0 0 1 .39-.703Z" opacity=".896"/><path d="M51.961 38.133v1.875a5.884 5.884 0 0 1-1.211 2.578l-8.164 8.164a5.884 5.884 0 0 1-2.578 1.211h-1.875c-3.18-.904-4.626-3.014-4.336-6.328a5.694 5.694 0 0 1 1.094-2.422l8.242-8.242c2.227-1.638 4.493-1.69 6.797-.157a5.717 5.717 0 0 1 2.031 3.32Zm-5.39-3.047c2.444.244 3.772 1.585 3.984 4.023a3.734 3.734 0 0 1-.664 2.227 83.954 83.954 0 0 1-3.711 3.75 122.008 122.008 0 0 1-3.672-3.672c.441-.48.897-.95 1.367-1.406.28-.734.033-1.111-.742-1.133-.607.45-1.167.958-1.68 1.523a12.755 12.755 0 0 1-.82-.859 226.069 226.069 0 0 1 3.515-3.555 4.753 4.753 0 0 1 2.422-.898Zm-7.11 5.547a.386.386 0 0 1 .234.039c.22.26.455.507.703.742a62.264 62.264 0 0 1-1.836 1.875c-.363.912-.063 1.29.899 1.133a34.428 34.428 0 0 1 1.992-1.914l3.633 3.633a63.708 63.708 0 0 1-3.75 3.75c-2.051 1.138-3.861.838-5.43-.899-1.012-1.632-.986-3.247.078-4.843a220.949 220.949 0 0 0 3.477-3.516Z" opacity=".931"/><path d="M45.477 36.492c.768 0 1.041.364.82 1.094l-.664.664c-.828.266-1.18-.033-1.055-.898.24-.358.54-.644.898-.86Z" opacity=".892"/></g><defs><clipPath id="a"><path fill="#fff" d="M12 12h40v40H12z"/></clipPath></defs></svg>