<svg xmlns="http://www.w3.org/2000/svg" width="32" height="32" fill="none"><g clip-path="url(#a)"><circle cx="16" cy="16" r="16" fill="#fff"/><path fill="#61AA45" fill-rule="evenodd" d="M14.594-.031h2.75c6.266.784 10.735 4.034 13.406 9.75a17.447 17.447 0 0 1 1.219 4.875v2.75c-.784 6.266-4.034 10.735-9.75 13.406a17.446 17.446 0 0 1-4.875 1.219h-2.75c-6.267-.784-10.736-4.034-13.406-9.75a17.443 17.443 0 0 1-1.22-4.875v-2.75C.754 8.327 4.004 3.858 9.719 1.188a17.443 17.443 0 0 1 4.876-1.22Zm8.875 9.062c1.29.01 1.905.656 1.843 1.938a3.39 3.39 0 0 1-.25.562A435.396 435.396 0 0 1 14.22 22.187c-.578.244-1.12.182-1.625-.187l-5.438-4.938c-.75-.813-.75-1.625 0-2.437.68-.471 1.347-.45 2 .063l4.313 3.968c3.114-3.082 6.218-6.176 9.312-9.281.218-.15.448-.265.688-.344Z" clip-rule="evenodd" opacity=".992"/></g><defs><clipPath id="a"><path fill="#fff" d="M0 0h32v32H0z"/></clipPath></defs></svg>