<svg xmlns="http://www.w3.org/2000/svg" width="20" height="20" fill="none"><g clip-path="url(#a)"><path fill="#5684EB" fill-rule="evenodd" d="M10.84-.02h.469c4.095.92 6.862 3.355 8.3 7.305.144.482.267.964.371 1.445v.352c-.213.398-.525.496-.937.293l-.137-.137c-.586-3.109-2.233-5.46-4.941-7.05a10.917 10.917 0 0 0-3.242-1.133c-.386-.408-.347-.766.117-1.075Z" clip-rule="evenodd" opacity=".958"/><path fill="#5684EB" fill-rule="evenodd" d="M14.902 19.98H13.81a11.403 11.403 0 0 1-3.243-.996c-4.162-2.04-7.307-5.12-9.433-9.238A12.064 12.064 0 0 1-.02 6.113V5.098c.077-.535.266-1.03.567-1.485a21.299 21.299 0 0 1 2.168-2.168c.854-.49 1.661-.425 2.422.196.96.933 1.89 1.89 2.793 2.87.498.929.381 1.775-.352 2.54L6.27 8.359a10.9 10.9 0 0 0 1.933 2.715 12.174 12.174 0 0 0 3.36 2.578c.5-.46.987-.935 1.464-1.425.91-.714 1.808-.7 2.696.039l2.402 2.402c.767.838.845 1.737.234 2.695-.63.67-1.275 1.327-1.933 1.973a3.624 3.624 0 0 1-1.524.645ZM3.77 2.285c.182.017.352.076.507.176l2.598 2.598c.28.402.24.78-.117 1.132-.51.522-1.03 1.03-1.563 1.524a.898.898 0 0 0-.156.742c.254.651.58 1.263.977 1.836a16.243 16.243 0 0 0 4.082 3.926l1.171.625a.985.985 0 0 0 1.016-.196l1.602-1.601c.334-.242.66-.229.976.039.88.867 1.746 1.746 2.598 2.637a.743.743 0 0 1 0 .859 61.063 61.063 0 0 1-1.816 1.855 2.368 2.368 0 0 1-1.758.352 8.394 8.394 0 0 1-2.149-.586c-4.501-2.002-7.79-5.237-9.863-9.707a8.476 8.476 0 0 1-.723-2.871c-.015-.51.122-.972.41-1.387L3.34 2.461c.139-.083.282-.141.43-.176Z" clip-rule="evenodd" opacity=".959"/><path fill="#5684EB" fill-rule="evenodd" d="M10.84 3.574c2.586.473 4.344 1.938 5.273 4.395.163.422.235.859.215 1.308-.174.332-.441.442-.8.332a1 1 0 0 1-.255-.214c-.376-1.973-1.463-3.399-3.261-4.278a7.63 7.63 0 0 0-1.367-.39c-.435-.32-.461-.672-.079-1.055.095-.035.186-.068.274-.098Z" clip-rule="evenodd" opacity=".955"/></g><defs><clipPath id="a"><path fill="#fff" d="M0 0h20v20H0z"/></clipPath></defs></svg>