<svg xmlns="http://www.w3.org/2000/svg" width="32" height="33" fill="none"><g clip-path="url(#a)"><path fill="#29A71A" fill-rule="evenodd" d="M14.531.469h2.875c5.603.68 9.822 3.451 12.657 8.312a16.936 16.936 0 0 1 1.906 6.25v2.875c-.68 5.603-3.452 9.822-8.313 12.657a16.935 16.935 0 0 1-6.25 1.906h-2.875c-5.603-.68-9.821-3.452-12.656-8.313a16.933 16.933 0 0 1-1.906-6.25v-2.875C.649 9.43 3.42 5.21 8.28 2.375a16.934 16.934 0 0 1 6.25-1.906Z" clip-rule="evenodd" opacity=".996"/><path fill="#FDFEFD" fill-rule="evenodd" d="M15.219 6.469c4.12-.102 7.256 1.585 9.406 5.062 1.875 3.687 1.667 7.25-.625 10.688-2.311 2.982-5.363 4.326-9.156 4.031a10.83 10.83 0 0 1-3.313-.969c-1.63.366-3.255.751-4.875 1.157-.52.04-.697-.2-.531-.72.33-1.591.654-3.185.969-4.78-1.7-3.792-1.335-7.365 1.093-10.72 1.84-2.195 4.183-3.445 7.032-3.75Z" clip-rule="evenodd"/><path fill="#2AA71B" fill-rule="evenodd" d="M15.406 8.594c3.637-.016 6.23 1.609 7.781 4.875 1.148 3.378.45 6.305-2.093 8.781-2.94 2.273-6.045 2.513-9.313.719-.992.245-1.982.495-2.969.75.125-1.007.302-2.007.532-3a53.854 53.854 0 0 1-.907-2.375c-.73-3.862.573-6.81 3.907-8.844a8.95 8.95 0 0 1 3.062-.906Z" clip-rule="evenodd"/><path fill="#FDFEFD" fill-rule="evenodd" d="M12.531 11.594c.274-.01.513.074.719.25.33.68.642 1.367.938 2.062.043.214.022.423-.063.625-.28.29-.478.624-.594 1-.002.184.05.35.156.5.53.675 1.123 1.29 1.782 1.844.445.362.924.674 1.437.938a.97.97 0 0 0 .75-.125l.625-.625a.721.721 0 0 1 .344-.094c.791.184 1.572.403 2.344.656.286.215.38.496.281.844-.555 1.178-1.482 1.761-2.781 1.75a7.119 7.119 0 0 1-3.688-1.469 12.866 12.866 0 0 1-3.094-3.281 4.605 4.605 0 0 1-.656-3.032 3.27 3.27 0 0 1 1-1.5c.16-.13.328-.244.5-.343Z" clip-rule="evenodd"/></g><defs><clipPath id="a"><path fill="#fff" d="M0 .5h32v32H0z"/></clipPath></defs></svg>